<svg width="209" height="178" viewBox="0 0 209 178" fill="none" xmlns="http://www.w3.org/2000/svg">
<rect width="209" height="178" rx="10" fill="white"/>
<path d="M72.4 149.2C61.4667 149.2 53.8667 147.067 49.6 142.8C45.3333 138.533 43.2 133.333 43.2 127.2C43.2 119.467 45.2 111.2 49.2 102.4C53.4667 93.6 57.4667 86.1333 61.2 80C65.4667 73.6 71.2 66.9333 78.4 60C85.6 53.0667 93.4667 47.2 102 42.4C110.533 37.6 118.8 35.2 126.8 35.2C133.733 35.2 138.533 36.9333 141.2 40.4C143.867 43.6 145.2 47.4667 145.2 52C145.2 60.2667 142.667 67.0667 137.6 72.4C132.8 77.7333 126.8 82.1333 119.6 85.6C112.4 88.8 105.467 91.4667 98.8 93.6C94.8 94.6667 90.1333 95.7333 84.8 96.8C79.4667 97.8667 74.4 98.4 69.6 98.4C67.7333 103.2 66.2667 107.867 65.2 112.4C64.1333 116.933 63.6 121.067 63.6 124.8C63.6 129.333 64.6667 133.067 66.8 136C69.2 138.933 73.0667 140.4 78.4 140.4C80.5333 140.4 83.0667 140.133 86 139.6C88.9333 139.067 92.1333 138.267 95.6 137.2C103.6 134.533 111.467 130.267 119.2 124.4C126.933 118.533 134 112.267 140.4 105.6C147.067 98.6667 152.133 92.9333 155.6 88.4C156.4 89.2 156.8 90.1333 156.8 91.2C156.8 92.5333 155.867 94.6667 154 97.6C148.667 105.067 141.733 112.8 133.2 120.8C124.667 128.8 115.2 135.6 104.8 141.2C94.4 146.533 83.6 149.2 72.4 149.2ZM72.8 90.4C76.2667 90.6667 80.1333 90.6667 84.4 90.4C88.9333 89.8667 93.3333 88.9333 97.6 87.6C108.533 84.4 116.4 79.3333 121.2 72.4C126.267 65.2 128.8 58.8 128.8 53.2C128.8 50 128.133 47.3333 126.8 45.2C125.467 43.0667 123.333 42 120.4 42C112.667 42 105.733 44.9333 99.6 50.8C93.4667 56.4 88.1333 62.9333 83.6 70.4C79.0667 77.8667 75.4667 84.5333 72.8 90.4Z" fill="black"/>
</svg>
